HIERARCHY
ROOT Spine
{
    OFFSET 0.0 0.0 -0.0
    CHANNELS 6 Xposition Yposition Zposition Zrotation Xrotation Yrotation
    JOINT ShoulderCenter
    {
        OFFSET 0.0 0.22807911038398743 0.0
        CHANNELS 3 Zrotation Xrotation Yrotation
        JOINT LeftShoulder
        {
            OFFSET 0.17535437643527985 0.0 0.0
            CHANNELS 3 Zrotation Xrotation Yrotation
            JOINT LeftElbow
            {
                OFFSET 0.2451436072587967 0.0 0.0
                CHANNELS 3 Zrotation Xrotation Yrotation
                JOINT LeftHand
                {
                    OFFSET 0.2747396230697632 0.0 0.0
                    CHANNELS 3 Zrotation Xrotation Yrotation
                    End Site
                    {
                        OFFSET 0.10989585518836975 0.0 0.0
                    }
                }
            }
        }
        JOINT RightShoulder
        {
            OFFSET -0.17535437643527985 0.0 0.0
            CHANNELS 3 Zrotation Xrotation Yrotation
            JOINT RightElbow
            {
                OFFSET -0.2451436072587967 0.0 0.0
                CHANNELS 3 Zrotation Xrotation Yrotation
                JOINT RightHand
                {
                    OFFSET -0.2747396230697632 0.0 0.0
                    CHANNELS 3 Zrotation Xrotation Yrotation
                    End Site
                    {
                        OFFSET -0.10989585518836975 0.0 0.0
                    }
                }
            }
        }
        End Site
        {
            OFFSET 0.0 0.09123164415359497 0.0
        }
    }
    JOINT LeftHip
    {
        OFFSET 0.21907544104956417 -0.21907544104956417 0.0
        CHANNELS 3 Zrotation Xrotation Yrotation
        JOINT LeftKnee
        {
            OFFSET 0.0 -0.3402525782585144 0.0
            CHANNELS 3 Zrotation Xrotation Yrotation
            JOINT LeftFoot
            {
                OFFSET 0.0 -0.4457123279571533 0.0
                CHANNELS 3 Zrotation Xrotation Yrotation
                End Site
                {
                    OFFSET 0.0 0.0 0.1782849282026291
                }
            }
        }
    }
    JOINT RightHip
    {
        OFFSET -0.21907544104956417 -0.21907544104956417 0.0
        CHANNELS 3 Zrotation Xrotation Yrotation
        JOINT RightKnee
        {
            OFFSET 0.0 -0.3402525782585144 0.0
            CHANNELS 3 Zrotation Xrotation Yrotation
            JOINT RightFoot
            {
                OFFSET 0.0 -0.4457123279571533 0.0
                CHANNELS 3 Zrotation Xrotation Yrotation
                End Site
                {
                    OFFSET 0.0 0.0 0.1782849282026291
                }
            }
        }
    }
}
MOTION
Frames: 7
Frame Time: 0.03333333333333333
-0.2319180965423584 0.30545300245285034 3.4915900230407715 -2.435457254565447 -14.189382796743782 -159.03660917061785 -5.205818110898696e-07 -1.3180517666682548e-07 4.1536729307916715 100.2063392188555 -27.52578732475944 -175.2841759694745 -1.1731231600547456e-06 -3.75375597325294e-06 110.78023930359936 0.0 -3.1805546814635168e-15 0.0 -129.96833847446635 -21.039917182321247 150.2688108560549 -6.974284706551098e-06 2.320616775785229e-06 -123.11651758521035 -3.3793393490549868e-15 -3.5173315812587204e-32 1.1927080055488188e-15 -0.5573432875793649 6.119395806100582 -51.064656042344254 -1.8400280695146558 -9.429679941971798 24.951600123001494 -2.484808344893372e-16 -2.155227684594804e-34 9.939233379573489e-17 -8.27796418350004 2.351470559817872 45.09660841189925 1.9436474961820318 -12.463024189367708 -36.24864838378808 -1.5902773407317582e-15 -4.138037154422024e-33 2.9817700138720465e-16
-0.23435460031032562 0.30383750796318054 3.493791103363037 -1.921481722570351 -13.600630445191566 -158.774591527481 2.370951744728112e-07 1.578068204945682e-07 3.3969279628880424 95.93311755630401 -24.619692870863233 -163.01366483933316 5.863460011518555e-08 5.76906701886995e-07 104.27793998860813 0.0 3.1805546814635168e-15 0.0 -135.9862490969574 -24.953576548910636 152.52330081210158 -1.0699060329320621e-06 -1.4812861100607046e-06 -122.24576717433084 -4.075085685625131e-15 -2.120744041641287e-32 5.963540027744094e-16 -0.0028572573742364784 6.474935822388716 -51.894869682870024 -1.8499584322411318 -9.689123625658855 25.484753885873417 2.4848083448933725e-16 -1.5902773407317584e-15 1.987846675914698e-16 -7.519690964141723 2.666646072448017 43.68868982630151 1.7247773353509153 -11.996272430648776 -34.66038133178052 1.1927080055488188e-15 -1.5902773407317584e-15 -4.47265502080807e-15
-0.23624169826507568 0.3022381067276001 3.49548602104187 -1.4958546724927368 -13.446665485071918 -158.6877516267915 6.745267556875458e-08 1.1999382045200598e-06 3.057465503755546 99.31917523311914 -24.939233485776747 -151.02257321161466 1.4178373574591972e-06 9.346290823789422e-08 94.90234230179328 -6.361109362927033e-15 3.1805546814635164e-15 1.7655625192200634e-31 -143.87074204902711 -26.672324020747908 152.83261441271242 -1.1377092051940935e-06 1.8622410812862418e-06 -125.79637500009125 -1.1927080055488188e-15 9.93923337957349e-17 -3.975693351829396e-16 0.352627697688651 6.465707752257368 -52.563143315631166 -2.787898277497257 -9.343808516265682 23.61776397564178 -9.939233379573489e-17 1.7241821476758432e-34 -1.9878466759146977e-16 -7.076675970978818 2.6080119876111594 42.64836949234989 12.229625044226601 -6.613852579089603 -12.428126037513097 0.0 0.0 0.0
-0.2377030998468399 0.3016194999217987 3.4966580867767334 -1.3266963708781223 -13.425096425570352 -158.70795116328762 2.4446239823805186e-07 1.9083054770770566e-07 2.8557395496272293 100.79478975115764 -27.137393066436246 -148.1106591930235 -1.9474612919111579e-07 1.1787134964848314e-07 94.49173180627484 6.361109362927033e-15 0.0 0.0 -142.52693388466767 -29.485040707306194 154.2478473470323 2.4022703472781482e-06 2.5850184610845248e-06 -122.65795888398411 1.4908850069360235e-16 -6.3362612794781e-15 -9.939233379573489e-17 0.4368412706156367 6.375325059830431 -52.862837044509035 -2.698474298282307 -9.276340578644922 23.65165422798881 5.963540027744094e-16 -1.034509288605506e-33 -1.987846675914698e-16 -6.735155614400191 2.7643141654246097 42.225250172791625 11.576429886478438 -6.6985439025667315 -12.690914271696451 0.0 0.0 1.1927080055488188e-15
-0.2384423017501831 0.30120208859443665 3.4968841075897217 -1.0947217013453105 -13.54620011954343 -158.7182317380562 -3.8775139121482776e-07 -9.15059255929379e-07 2.7288739584551287 101.21771767836142 -27.147758278204538 -147.72949406275035 7.788069775040178e-07 6.100481500921256e-07 91.88743318888596 -3.1805546814635168e-15 -3.1805546814635168e-15 -6.3611093629270335e-15 -144.37596343394907 -34.51652870356398 153.21320086153295 2.3208252081360625e-06 7.430580758233701e-07 -115.51031966427735 5.963540027744093e-16 0.0 0.0 0.5527818226047371 6.142668722817332 -52.75983604427587 -3.882758117726807 -7.79879324755695 19.203179994886074 1.987846675914698e-15 1.7241821476758433e-32 9.93923337957349e-16 -6.333036740942825 3.067823845214501 42.456184683938744 10.40388499904316 -7.2545615697937516 -14.051709296166436 7.951386703658792e-16 -1.9310840053969444e-32 -2.782985346280577e-15
-0.23889480531215668 0.30131208896636963 3.497298002243042 -1.0101686251392281 -13.602410939111518 -159.05185276213606 5.541005268448008e-07 5.597527896327308e-07 2.746191141831977 100.11306388531551 -25.83768714594008 -145.97259179984832 -4.841090047012256e-06 1.3870367734224353e-06 88.44783814841091 -1.7655625192200634e-31 3.1805546814635164e-15 6.361109362927033e-15 -146.29232743906817 -36.993335101529084 151.96213331386062 -4.594888092174173e-06 4.080404554613155e-06 -114.59777050964891 1.987846675914698e-16 -6.3611093629270335e-15 1.1034765745125397e-32 0.5140565682480069 5.959613260618566 -52.17501657746532 -3.8280993058033213 -7.485533441531616 18.640556761196105 8.276074308844047e-33 -1.5902773407317584e-15 5.963540027744094e-16 -6.557296686781952 2.87706385486697 42.55549217988402 10.591578959358301 -7.607080051595467 -14.792124963106522 0.0 0.0 2.3854160110976376e-15
-0.2392932027578354 0.300995409488678 3.4974560737609863 -0.8577618115245517 -13.731560072094556 -159.18527017313966 1.2611253658021645e-08 6.225066872611901e-07 2.9440555792906484 99.8138059757291 -26.620576178948962 -146.5030539327519 -4.598780379843995e-06 -2.5175290626320964e-06 89.3974884816146 -9.541664044390553e-15 -3.1805546814635176e-15 -2.648343778830095e-31 -148.18207905233197 -41.065225182204 151.80270486703947 -2.7440413850409477e-07 -4.2413560152674515e-06 -118.49532240947742 1.1034765745125397e-32 6.361109362927035e-15 -1.9878466759146985e-16 0.5885627434094405 5.73184104401674 -51.91076976640829 -3.270385878988653 -8.24053842347076 21.06577881333287 1.987846675914698e-16 -6.896728590703373e-34 -3.975693351829396e-16 -6.6532776303946966 2.6813974027710104 42.58110823241171 10.767951536583167 -7.828507821963239 -15.22736080988962 -7.951386703658792e-16 -3.1805546814635168e-15 -2.782985346280577e-15
